#!OML:ASF H:\Punching\Project 1\Capture day 1\Session 1\female.ASF
:FULLY-SPECIFIED
:DEGREES
4858
root -2.04184 15.7989 -5.54329 -526.255 190.187 181.207
lowerback -5.31122 -0.708918 3.00219
upperback -5.89242 -1.05019 0.0629429
thorax -3.15983 -0.64684 -1.64068
lowerneck -14.214 4.30717 8.74161
upperneck 37.0434 7.1899 -9.16724
head 16.3445 2.96754 -4.3101
rclavicle 3.66742e-014 1.27222e-014
rhumerus -32.4405 -1.51248 -73.5498
rradius 28.7585
rwrist 8.85931
rhand -12.6837 -5.17869
rfingers 7.12502
rthumb 13.398 -34.7279
lclavicle 3.66742e-014 1.27222e-014
lhumerus -49.5226 13.1108 70.5886
lradius 34.0496
lwrist -19.4404
lhand -2.70951 12.1523
lfingers 7.12502
lthumb 22.9927 40.801
rfemur -20.9539 7.13916 22.8892
rtibia 26.9769
rfoot -19.3146 -12.7184
rtoes 7.2274
lfemur -34.7976 -3.05296 -24.0352
ltibia 42.9444
lfoot -22.3465 11.2407
ltoes -16.3597
4859
root -2.05285 15.7944 -5.56325 -526.217 189.454 181.214
lowerback -5.38108 -0.737198 2.97977
upperback -5.9231 -1.08783 0.0791387
thorax -3.15397 -0.664365 -1.61311
lowerneck -14.2665 4.24329 8.70158
upperneck 37.1326 7.06117 -9.02781
head 16.3757 2.9286 -4.26691
rclavicle 5.42154e-015 -1.47101e-014
rhumerus -32.6976 -1.67888 -73.389
rradius 28.8004
rwrist 8.72469
rhand -12.6938 -5.19397
rfingers 7.12502
rthumb 13.3884 -34.7438
lclavicle 5.42154e-015 -1.47101e-014
lhumerus -49.6358 13.3585 70.5831
lradius 33.7022
lwrist -19.5879
lhand -2.732 12.127
lfingers 7.12502
lthumb 22.9711 40.7784
rfemur -21.052 6.80084 23.0257
rtibia 27.115
rfoot -19.4169 -13.0294
rtoes 7.34622
lfemur -34.5372 -2.87447 -24.2116
ltibia 43.0901
lfoot -22.4287 11.7115
ltoes -15.7755
4860
root -2.06278 15.7897 -5.58205 -526.177 188.74 181.217
lowerback -5.44499 -0.760728 2.96445
upperback -5.95401 -1.11909 0.095374
thorax -3.15151 -0.678998 -1.58926
lowerneck -14.3199 4.18347 8.65943
upperneck 37.2123 6.93832 -8.8881
head 16.4032 2.89192 -4.22152
rclavicle -1.69852e-014 5.96354e-015
rhumerus -32.9563 -1.82799 -73.241
rradius 28.8452
rwrist 8.58226
rhand -12.6846 -5.21727
rfingers 7.12502
rthumb 13.3973 -34.7665
lclavicle -1.69852e-014 5.96354e-015
lhumerus -49.7316 13.6088 70.5706
lradius 33.3425
lwrist -19.7413
lhand -2.76757 12.0772
lfingers 7.12502
lthumb 22.937 40.7327
rfemur -21.1546 6.46212 23.1592
rtibia 27.2561
rfoot -19.5278 -13.3215
rtoes 7.46172
lfemur -34.2542 -2.80262 -24.3267
ltibia 43.1547
lfoot -22.4981 12.1351
ltoes -15.2824
4861
root -2.07177 15.7853 -5.60022 -526.13 188.038 181.216
lowerback -5.5111 -0.780554 2.95504
upperback -5.9846 -1.14562 0.112051
thorax -3.14738 -0.691439 -1.56823
lowerneck -14.3774 4.13252 8.62305
upperneck 37.286 6.82808 -8.75244
head 16.4314 2.86084 -4.17629
rclavicle -1.09797e-014 0
rhumerus -33.215 -1.96901 -73.1036
rradius 28.8902
rwrist 8.44212
rhand -12.6516 -5.2738
rfingers 7.12502
rthumb 13.429 -34.8209
lclavicle -1.09797e-014 0
lhumerus -49.8064 13.8629 70.5437
lradius 32.954
lwrist -19.9352
lhand -2.82933 11.9837
lfingers 7.12502
lthumb 22.8778 40.6466
rfemur -21.2644 6.13563 23.2892
rtibia 27.3946
rfoot -19.6356 -13.6134
rtoes 7.57632
lfemur -33.9539 -2.83929 -24.3812
ltibia 43.1295
lfoot -22.548 12.5256
ltoes -14.8257
4862
root -2.07978 15.781 -5.61793 -526.076 187.347 181.212
lowerback -5.58033 -0.797432 2.95307
upperback -6.01636 -1.16854 0.128002
thorax -3.14275 -0.702363 -1.5521
lowerneck -14.431 4.08979 8.59881
upperneck 37.3497 6.72999 -8.62672
head 16.4566 2.83546 -4.13496
rclavicle 1.17469e-014 -4.05521e-014
rhumerus -33.4778 -2.09996 -72.9795
rradius 28.9405
rwrist 8.30249
rhand -12.6214 -5.32692
rfingers 7.12502
rthumb 13.4581 -34.8721
lclavicle 1.17469e-014 -4.05521e-014
lhumerus -49.8662 14.1283 70.4928
lradius 32.5425
lwrist -20.19
lhand -2.8963 11.8625
lfingers 7.12502
lthumb 22.8135 40.5334
rfemur -21.3825 5.82958 23.4145
rtibia 27.5307
rfoot -19.7396 -13.9157
rtoes 7.68485
lfemur -33.628 -2.97828 -24.3811
ltibia 43.0056
lfoot -22.5928 12.9048
ltoes -14.3551
